<?xml version="1.0" standalone="no"?>
<!DOCTYPE svg PUBLIC "-//W3C//DTD SVG 20010904//EN"
 "http://www.w3.org/TR/2001/REC-SVG-20010904/DTD/svg10.dtd">
<svg version="1.0" xmlns="http://www.w3.org/2000/svg"
 width="10.000000pt" height="10.000000pt" viewBox="0 0 300.000000 300.000000"
 preserveAspectRatio="xMidYMid meet">
<metadata>
Created by potrace 1.10, written by Peter Selinger 2001-2011
</metadata>
<g transform="translate(0.000000,300.000000) scale(0.100000,-0.100000)"
fill="#000000" stroke="none">
<path d="M1335 2990 c-330 -38 -634 -182 -877 -418 -179 -174 -307 -379 -382
-610 -54 -166 -69 -271 -70 -462 0 -191 16 -293 70 -462 75 -231 203 -436 382
-610 216 -210 467 -341 765 -400 143 -28 393 -30 535 -5 213 39 441 136 619
263 179 129 362 344 465 547 52 104 113 288 134 407 26 143 24 393 -4 535 -59
299 -191 552 -400 767 -57 58 -145 136 -195 172 -177 127 -408 225 -614 261
-109 20 -322 27 -428 15z m402 -239 c525 -102 919 -500 1017 -1030 34 -180 15
-445 -44 -621 -127 -378 -432 -683 -810 -810 -94 -32 -250 -60 -330 -60 l-70
0 0 1270 0 1270 70 0 c38 0 113 -9 167 -19z"/>
</g>
</svg>
